<svg width="512" height="136" viewBox="0 0 512 136" fill="none" xmlns="http://www.w3.org/2000/svg">
<g clip-path="url(#clip0_253_29)">
<path d="M67.8156 7.85672C100.884 7.85672 127.764 34.7267 127.764 67.7249C127.764 100.723 100.884 127.593 67.8156 127.593C34.7732 127.593 7.86724 100.749 7.86724 67.7249C7.86724 34.7005 34.7732 7.85672 67.8156 7.85672ZM67.8156 0C30.3676 0 0 30.3269 0 67.7249C0 105.123 30.3676 135.45 67.8156 135.45C105.263 135.45 135.631 105.123 135.631 67.7249C135.631 30.3269 105.263 0 67.8156 0Z" fill="url(#paint0_linear_253_29)"/>
<path d="M28.4798 67.7248C28.4798 87.2095 40.3592 99.8067 58.7686 99.8067H67.6586V35.6694H58.7424C40.3592 35.6694 28.4798 48.2402 28.4798 67.7248ZM61.1812 42.1119V93.3114H58.7424C51.0325 93.3114 45.0271 90.876 40.8837 86.0834C37.0025 81.5789 34.9309 75.2411 34.9309 67.6986C34.9309 60.1562 37.0025 53.8184 40.8837 49.3139C45.0271 44.5213 51.0325 42.0857 58.7424 42.0857H61.1812V42.1119Z" fill="white"/>
<path d="M76.4436 77.2828H87.3528V99.7271H93.463V77.2828H104.372V71.1807H76.4436V77.2828Z" fill="white"/>
<path d="M83.1574 63.2204L90.4479 53.3472L97.5545 63.168L97.6069 63.2204H104.661L94.0662 48.6593L103.088 36.5076L103.245 36.2981H95.9544L90.4479 43.9714L85.098 36.3505L85.0717 36.2981H77.9912L86.9074 48.6593L75.8933 63.2204H83.1574Z" fill="white"/>
<path d="M165.684 41.6667H181.523C188.735 41.6667 194.688 43.0809 199.408 45.9356C204.129 48.7901 207.564 52.4566 209.714 56.9611C211.865 61.4656 212.966 66.2059 212.966 71.2342C212.966 76.8124 211.655 81.7621 209.032 86.0571C206.41 90.3523 202.923 93.6518 198.543 95.9563C194.164 98.2616 189.417 99.44 184.303 99.44H165.658V41.6667H165.684ZM182.782 91.8973C187.057 91.8973 190.86 91.0593 194.216 89.3832C197.572 87.7071 200.195 85.2715 202.083 82.0765C203.971 78.8814 204.916 75.0839 204.916 70.658C204.916 66.1273 203.919 62.2513 201.952 59.0039C199.985 55.7564 197.363 53.2947 194.085 51.6186C190.807 49.9425 187.266 49.1044 183.49 49.1044H173.42V91.9235H182.782V91.8973Z" fill="white"/>
<path d="M323.841 99.4138L308.815 76.3153L295.047 99.4138H285.449L304.487 69.6109L286.236 41.6411H296.07L310.467 63.6922L323.579 41.6411H332.941L314.61 70.161L333.727 99.4138H323.841Z" fill="white"/>
<path d="M383.187 84.2504H360.949L354.787 99.44H347.104L372.383 39.2576H372.855L398.136 99.4139H389.167L383.187 84.2504ZM380.565 77.5198L372.331 56.4376L363.782 77.5198H380.565Z" fill="white"/>
<path d="M449.507 41.6673V49.1049H433.983V99.44H426.221V49.0787H411.089V41.6411H449.507V41.6673Z" fill="white"/>
<path d="M497.026 84.2496H474.787L468.624 99.439H460.941L486.221 39.283H486.693L511.973 99.439H503.004L497.026 84.2496ZM494.403 77.519L486.169 56.4368L477.619 77.519H494.403Z" fill="white"/>
<path d="M264.076 41.7195H230.798V49.0524H264.076V41.7195Z" fill="#ED9CFF"/>
<path d="M269.321 92.0806H230.798V99.4129H269.321V92.0806Z" fill="#B4F2FF"/>
<path d="M255.213 66.6772H230.798V74.0102H255.213V66.6772Z" fill="#9999FF"/>
</g>
<defs>
<linearGradient id="paint0_linear_253_29" x1="19.8634" y1="19.8369" x2="115.644" y2="115.745" gradientUnits="userSpaceOnUse">
<stop offset="0.0491" stop-color="#ED9CFF"/>
<stop offset="0.0735" stop-color="#E89BFF"/>
<stop offset="0.3918" stop-color="#A794FF"/>
<stop offset="0.5417" stop-color="#8D91FF"/>
<stop offset="0.6157" stop-color="#919BFF"/>
<stop offset="0.7426" stop-color="#9CB7FF"/>
<stop offset="0.9059" stop-color="#AEE3FF"/>
<stop offset="0.9563" stop-color="#B4F2FF"/>
</linearGradient>
<clipPath id="clip0_253_29">
<rect width="512" height="135.45" fill="white"/>
</clipPath>
</defs>
</svg>
