<svg width="512" height="114" viewBox="0 0 512 114" fill="none" xmlns="http://www.w3.org/2000/svg">
<g clip-path="url(#clip0_262_23)">
<path d="M56.9616 83.8353V62.0784H80.9466V83.8353H95.5164V30.385H80.9466V51.4655H56.9584V30.385H42.3885V83.8353H56.9584H56.9616ZM136.685 83.8353V65.2421L157.98 30.385H142.513L131.009 50.4858C130.36 51.6145 129.88 52.8328 129.587 54.1014H129.438C129.239 53.0458 128.743 51.8416 127.943 50.4858L116.66 30.385H100.82L122.042 65.2421V83.8353H136.685ZM177.857 83.8353V65.8426H192.351C196.586 65.8426 200.274 65.103 203.413 63.6239C206.548 62.1417 208.966 60.0336 210.66 57.2998C212.354 54.5628 213.201 51.3644 213.201 47.7014C213.201 44.1869 212.366 41.1275 210.697 38.517C209.029 35.9064 206.636 33.8995 203.523 32.4931C200.41 31.0898 196.76 30.385 192.575 30.385H163.287V83.8353H177.857ZM188.915 55.8333H177.857V40.5492H188.915C191.804 40.5492 194.02 41.2034 195.565 42.5087C197.111 43.8108 197.882 45.6944 197.882 48.1533C197.882 50.6122 197.098 52.5053 195.527 53.8359C193.959 55.1664 191.753 55.8302 188.915 55.8302V55.8333ZM264.309 83.8353V73.374H234.347V61.6297H262.514V51.6172H234.344V40.8494H263.784V30.3882H219.774V83.8353H264.306H264.309ZM295.99 85.3428C301.318 85.3428 305.914 84.6159 309.776 83.1589C313.635 81.7051 316.574 79.6318 318.594 76.9486C320.61 74.2621 321.618 71.089 321.618 67.426C321.618 62.7579 320.246 59.1803 317.509 56.6961C314.769 54.212 310.411 52.4927 304.431 51.5414L293.897 49.9611C290.908 49.408 288.841 48.7285 287.693 47.9258C286.549 47.123 285.977 45.9441 285.977 44.386C285.977 42.7836 286.812 41.5416 288.48 40.6629C290.149 39.7843 292.475 39.345 295.465 39.345C299.15 39.345 302.488 40.034 305.478 41.4151C308.467 42.7963 310.831 44.7147 312.576 47.1736L321.615 38.8931C318.976 35.5809 315.477 33.0841 311.122 31.4027C306.761 29.7213 301.843 28.8806 296.363 28.8806C291.331 28.8806 286.998 29.5443 283.36 30.8749C279.726 32.2055 276.935 34.0986 274.991 36.5606C273.051 39.0195 272.077 41.9303 272.077 45.2931C272.077 49.9074 273.474 53.5483 276.262 56.2094C279.053 58.8674 283.262 60.6752 288.891 61.6297L299.725 63.2858C302.513 63.7345 304.469 64.3508 305.591 65.1283C306.71 65.9058 307.273 67.1226 307.273 68.7787C307.273 70.6876 306.35 72.1162 304.507 73.0706C302.665 74.0251 300.023 74.5023 296.587 74.5023C292.602 74.5023 289.065 73.6743 285.977 72.0182C282.956 70.4237 280.385 68.0932 278.503 65.2421L268.193 73.1433C270.582 76.9106 274.22 79.8847 279.103 82.0686C283.983 84.2493 289.612 85.3428 295.99 85.3428ZM337.756 83.8353L342.016 72.3943H364.955L369.215 83.8353H384.307L362.265 30.385H344.706L322.664 83.8353H337.756ZM361.368 62.6821H345.603L350.682 49.0572C352.079 45.0908 352.973 42.1294 353.375 40.1731H353.596C353.997 42.1326 354.892 45.0908 356.289 49.054L361.368 62.6821ZM432.128 83.8353V72.1667H405.08V30.385H390.511V83.8353H432.128ZM457.681 83.8353V41.9082H475.537V30.385H425.181V41.905H443.038V83.8353H457.684H457.681Z" fill="#D1F52C"/>
<path d="M512 0V113.778H0V0H512ZM500.113 11.9783H11.8835V101.8H500.117V11.9783H500.113Z" fill="#D1F52C"/>
</g>
<defs>
<clipPath id="clip0_262_23">
<rect width="512" height="113.778" fill="white"/>
</clipPath>
</defs>
</svg>
