<svg width="512" height="85" viewBox="0 0 512 85" fill="none" xmlns="http://www.w3.org/2000/svg">
<g clip-path="url(#clip0_253_53)">
<path d="M47.0227 20.5654H58.1461L65.4197 49.111L73.5046 20.5654H82.4471L90.4888 49.0215L97.8458 20.5654H108.969L95.7482 66.1199H86.3801L77.9528 36.251L69.5686 66.1199H60.1573L47.0227 20.5654Z" fill="#3BB69D"/>
<path d="M156.76 20.5685H168.25V24.2177C171.443 20.2971 176.505 18.6992 181.246 18.6992C193.878 18.6992 200.763 29.8256 200.763 42.4111C200.763 55.1323 193.878 66.123 181.064 66.123C176.184 66.123 171.443 64.5714 168.25 60.6508V84.0881H156.76V20.5685ZM189.547 42.4142C189.547 34.8444 186.126 28.9619 178.467 28.9619C170.804 28.9619 167.248 34.7519 167.248 42.4142C167.248 50.0765 170.804 56.0484 178.467 56.0484C186.126 56.0484 189.547 49.984 189.547 42.4142Z" fill="#3BB69D"/>
<path d="M129.902 18.6963C120.919 18.6963 115.129 22.7094 110.752 28.6814L119.287 34.8261C121.249 31.5039 124.76 28.4099 129.994 28.4099C137.243 28.4099 139.523 31.2818 139.751 38.031H127.119C116.906 38.031 108.969 41.3131 108.969 51.2088C108.969 60.7404 116.175 66.12 125.521 66.12C130.719 66.12 136.784 63.8405 139.748 59.1425V66.12H150.874V37.5745C150.874 26.4481 142.302 18.6963 129.902 18.6963ZM127.758 56.7272C122.788 56.7272 120.37 54.5834 120.37 51.5758C120.37 48.704 122.696 46.0574 127.758 46.0574H139.523H139.748C139.063 51.4401 134.597 56.7272 127.758 56.7272Z" fill="#3BB69D"/>
<path d="M15.8305 17.194C15.8305 13.0913 19.3872 10.309 23.9463 10.309C28.2772 10.309 32.1084 12.8168 34.3417 17.194L45.2213 14.2265C41.6801 4.21674 32.9381 0 24.3566 0C13.5047 0 4.24759 6.38528 4.24759 17.7831C4.24759 38.7589 35.4398 34.2892 35.4398 47.652C35.4398 52.2112 31.7012 55.8603 24.8162 55.8603C17.9775 55.8603 12.277 52.3037 11.4565 44.2774L0 47.4022C2.14076 59.9414 13.2949 66.123 24.6311 66.123C36.942 66.123 47.0197 58.7815 47.0197 46.6063C47.0227 25.2172 15.8305 29.3229 15.8305 17.194Z" fill="#3BB69D"/>
<path d="M475.123 41.6892C475.123 31.5191 469.971 18.7053 454.011 18.7053C438.597 18.7053 431.666 30.7448 431.666 42.5992C431.666 54.6171 438.764 65.6664 453.805 66.1075V66.1291H469.237V56.0206H453.805C447.358 55.6504 443.702 51.6743 442.792 45.9954L474.712 46.0663C474.941 45.4278 475.123 43.5585 475.123 41.6892ZM442.792 38.0431C443.841 32.3426 447.351 28.058 453.919 28.058C458.752 28.058 462.491 30.4733 463.632 35.1713C463.907 36.0844 463.996 37.0406 463.996 38.0431H442.792Z" fill="#ABABAA"/>
<path d="M427.252 37.8798C427.252 28.3482 422.554 18.7271 410.607 18.7271C406.137 18.7271 400.893 20.5069 397.247 24.9735V20.5933H386.121V66.1292H397.247V66.1447V40.2951C397.247 32.3613 401.168 28.9867 407.417 28.9867C413.118 28.9867 416.128 33.3176 416.128 39.2926V66.1292H427.255V37.8798H427.252Z" fill="#ABABAA"/>
<path d="M380.235 37.8798C380.235 28.3482 375.537 18.7271 363.59 18.7271C359.121 18.7271 353.877 20.5069 350.231 24.9735V20.5933H339.104V66.1292H350.231V66.1447V40.2951C350.231 32.3613 354.151 28.9867 360.401 28.9867C366.101 28.9867 369.112 33.3176 369.112 39.2926V66.1292H380.238V37.8798H380.235Z" fill="#ABABAA"/>
<path d="M312.28 18.7085C303.297 18.7085 297.507 22.7217 293.13 28.6936L301.666 34.8383C303.627 31.5161 307.138 28.4221 312.372 28.4221C319.621 28.4221 321.901 31.2939 322.129 38.0432H309.501C299.287 38.0432 291.35 41.3253 291.35 51.2209C291.35 60.7526 298.556 66.1322 307.903 66.1322C313.1 66.1322 319.165 63.8527 322.129 59.1547V66.1322H333.256V37.5867C333.256 26.4603 324.683 18.7085 312.28 18.7085ZM310.136 56.7394C305.167 56.7394 302.748 54.5956 302.748 51.588C302.748 48.7162 305.074 46.0695 310.136 46.0695H321.901H322.126C321.444 51.4492 316.978 56.7394 310.136 56.7394Z" fill="#ABABAA"/>
<path d="M506.845 30.9885L512 21.9721C509.739 19.7449 506.491 18.6992 503.388 18.6992C498.11 18.6992 492.782 21.7993 490.756 27.3178V20.5655H479.537V66.1291H490.663L490.66 45.9677C490.66 34.3848 496.268 29.5511 501.642 29.5511C503.48 29.5511 505.223 30.0971 506.781 31.1027L506.845 30.9885Z" fill="#ABABAA"/>
<path d="M279.178 49.6816C277.784 53.4881 274.499 56.0545 270.344 56.0545C262.592 56.0545 259.674 49.441 259.674 42.5098C259.674 35.7142 262.685 28.783 270.344 28.783C274.576 28.783 277.787 31.4543 279.175 35.3409L288.411 28.6935C284.567 21.9689 278.136 18.7053 270.344 18.7053C255.479 18.7053 248.365 30.5628 248.365 42.5098C248.365 54.5924 255.571 66.1322 270.436 66.1322C278.17 66.1322 284.496 62.4491 288.044 56.0638L279.178 49.6816Z" fill="#ABABAA"/>
<path d="M244.574 29.3754L230.872 21.0345C223.355 16.4599 213.552 18.8444 208.974 26.3617C204.4 33.8791 206.784 43.6821 214.301 48.2598L218.629 50.8941C218.629 50.8941 218.632 50.8941 218.632 50.8972C220.893 52.273 223.839 51.5573 225.218 49.2963C225.372 49.0433 225.496 48.778 225.601 48.5128C226.412 46.3936 225.625 43.9351 223.617 42.7136L219.286 40.0762C216.291 38.2531 215.338 34.3448 217.164 31.3465C218.99 28.3482 222.895 27.3982 225.894 29.2243L238.377 36.8249L239.596 37.5653C241.857 38.941 244.806 38.2254 246.181 35.9643C247.554 33.7001 246.835 30.7512 244.574 29.3754Z" fill="#3BB69D"/>
<path d="M204.551 55.4532L218.253 63.7942C225.77 68.3688 235.573 65.9843 240.151 58.467C244.726 50.9496 242.341 41.1465 234.824 36.5689L230.496 33.9346C230.496 33.9346 230.493 33.9346 230.493 33.9315C228.232 32.5557 225.283 33.2714 223.907 35.5324C223.753 35.7854 223.629 36.0506 223.525 36.3159C222.713 38.4351 223.5 40.8936 225.508 42.1151L229.839 44.7525C232.834 46.5755 233.787 50.4838 231.961 53.4821C230.135 56.4804 226.23 57.4305 223.232 55.6044L210.748 48.0037L209.529 47.2634C207.268 45.8877 204.319 46.6033 202.944 48.8644C201.574 51.1316 202.29 54.0775 204.551 55.4532Z" fill="#ABABAA"/>
</g>
<defs>
<clipPath id="clip0_253_53">
<rect width="512" height="84.0882" fill="white"/>
</clipPath>
</defs>
</svg>
