<svg width="512" height="110" viewBox="0 0 512 110" fill="none" xmlns="http://www.w3.org/2000/svg">
<path d="M37.4928 60.4271C29.9371 60.6508 22.6548 59.9549 16.1926 55.332C5.95264 48.0061 1.8641 34.5475 6.58643 23.071C11.5449 11.0539 24.1212 4.00769 36.6602 6.21352C49.5037 8.45041 58.9856 18.8892 59.5262 31.5774C59.7375 36.6415 59.6691 41.7242 59.5262 46.7945C59.4765 48.9692 60.2408 49.6652 62.3907 49.6714C68.1818 49.6714 74.0225 49.4539 79.7887 50.0939C86.1832 50.7571 92.1222 53.7099 96.5107 58.4078C100.899 63.1057 103.441 69.2319 103.668 75.6566C104.146 89.2706 95.1115 100.94 82.0567 103.574C68.3868 106.333 55.1146 99.4174 50.6656 86.5056C49.1247 82.0318 49.1806 76.9801 48.7581 72.177C48.5437 69.1797 48.5437 66.1709 48.7581 63.1735C48.8886 60.9242 47.9876 60.2842 45.8688 60.396C43.0913 60.539 40.2889 60.4271 37.4928 60.4271ZM69.4493 60.2283V60.4271C66.964 60.3233 64.4749 60.3544 61.993 60.5203C61.1293 60.6135 59.7002 61.763 59.6878 62.4652C59.607 68.132 59.402 73.8485 60.0109 79.4718C60.9119 87.8353 68.5111 93.9184 76.8621 93.6015C85.2132 93.2846 92.4334 86.4061 92.8994 78.3658C93.4214 69.4555 87.5992 61.9432 78.9934 60.7254C75.868 60.2718 72.6431 60.3774 69.4493 60.2283V60.2283ZM38.6672 49.6217C41.1526 49.6217 43.6381 49.516 46.1235 49.6217C48.1988 49.7397 48.8202 48.9009 48.7705 46.9126C48.6462 42.1592 48.7705 37.3933 48.6649 32.6213C48.5787 28.3412 46.8177 24.2656 43.76 21.2694C40.7022 18.2733 36.5916 16.5956 32.3107 16.5964C28.0106 16.5351 23.856 18.1528 20.7297 21.1058C17.6034 24.0589 15.7517 28.1146 15.568 32.4112C15.3844 36.7078 16.8833 40.9067 19.7462 44.1157C22.6092 47.3248 26.6106 49.2911 30.9002 49.5968C33.4851 49.7708 36.0823 49.6217 38.6672 49.6217Z" fill="white"/>
<path d="M365.08 59.0291C365.701 63.9627 368.006 67.4547 371.915 69.8159C373.76 71.0133 375.907 71.6629 378.107 71.6893C380.306 71.7157 382.468 71.1178 384.342 69.965C385.926 69.0703 387.772 67.8835 388.474 66.3549C390.599 61.7506 394.234 63.2481 397.732 63.1611C395.98 71.1394 388.958 77.4959 381.247 78.3782C371.927 79.4407 363.905 75.0477 359.891 66.7029C354.647 55.9223 359.643 42.2524 370.479 37.6233C381.173 33.0501 393.165 38.4683 397.496 49.8205C397.496 49.92 397.577 50.0132 397.614 50.1064C400.36 57.6621 399.565 58.8613 391.755 58.8551C384.091 58.8551 376.428 58.8551 368.764 58.8551C367.664 58.8303 366.552 58.9359 365.08 59.0291ZM390.071 51.5728C388.207 46.2788 382.95 42.793 377.706 43.0974C372.461 43.4019 367.658 47.0617 366.683 51.5728H390.071Z" fill="white"/>
<path d="M506.153 63.2854C505.156 67.5956 502.733 71.4428 499.276 74.2036C495.82 76.9645 491.532 78.4771 487.108 78.4963C477.713 78.5771 469.163 72.0093 467.051 63.0928C463.528 48.2237 474.196 34.995 488.798 36.1196C498.659 36.8839 507.52 46.7138 507.371 56.5561C507.334 58.9794 505.886 58.8614 504.264 58.8551C495.37 58.8551 486.477 58.8551 477.583 58.8551C476.384 58.8551 475.184 58.9546 474.01 59.0105C473.873 63.8819 477.508 68.9522 482.088 70.7169C487.444 72.7612 493.701 71.4439 496.733 66.5414C499.268 62.4715 502.356 62.8381 506.153 63.2854ZM475.085 51.4113H498.653C496.621 46.2416 491.725 42.9297 486.574 43.0353C481.423 43.141 476.545 46.6579 475.079 51.4113H475.085Z" fill="white"/>
<path d="M223.304 39.0524C229.748 37.8097 230.052 37.9526 232.364 43.1409C235.727 50.6884 239.107 58.2358 242.504 65.7833C242.833 66.5103 243.25 67.2062 243.921 68.4613C244.623 67.2186 245.164 66.3984 245.549 65.5223C248.975 57.8796 252.386 50.2327 255.783 42.5817C257.79 38.0893 259.02 37.5736 264.656 39.1705L261.518 46.1483C257.019 56.1398 252.452 66.1002 248.09 76.1538C247.177 78.254 245.835 78.4528 243.952 78.459C242.069 78.4652 240.652 78.2664 239.826 76.1351C238.459 72.6244 236.719 69.2629 234.756 65.0128C232.941 69.0578 231.382 72.2703 230.058 75.5759C229.219 77.6823 228.008 78.546 225.653 78.5025C223.298 78.459 222.179 77.8128 221.229 75.6318C216.233 64.0683 210.983 52.5856 205.838 41.0718C205.589 40.5188 205.409 39.9347 205.216 39.3693C209.361 37.412 211.865 38.226 213.586 42.0846C216.966 49.6404 220.303 57.2023 223.671 64.758C224.162 65.8516 224.702 66.9266 225.678 68.9771C227.635 64.4598 229.331 60.8994 230.692 57.1712C231.003 56.32 230.307 55.0027 229.872 53.9837C227.747 49.0873 225.553 44.2097 223.304 39.0524Z" fill="white"/>
<path d="M199.506 58.1095C199.469 69.6046 190.863 78.4901 179.765 78.4963C168.668 78.5025 159.745 69.3561 159.764 57.9293C159.783 46.5025 168.873 37.207 179.803 37.2443C190.732 37.2815 199.543 46.5522 199.506 58.1095ZM192.671 57.861C192.671 50.212 186.868 44.1165 179.66 44.1413C172.558 44.1413 166.649 50.4792 166.686 58.0039C166.723 65.5285 172.638 71.7173 179.803 71.6738C186.967 71.6303 192.696 65.5658 192.677 57.861H192.671Z" fill="white"/>
<path d="M431.174 65.1121H437.275C439.643 71.5681 445.788 73.8981 451.281 70.518C454.481 68.5545 454.711 65.2675 451.461 63.3848C448.976 61.9556 446.074 61.3591 443.458 60.1661C440.842 58.9731 437.866 57.8298 435.61 55.9719C430.304 51.5665 430.683 44.4768 436.101 40.1956C441.625 35.8461 450.771 35.9393 455.941 40.5995C457.246 41.7642 458.303 43.1801 459.048 44.7626C461.198 49.5782 460.222 50.9451 455.052 50.4046C454.54 50.2721 454.067 50.0192 453.673 49.6668C453.278 49.3145 452.974 48.8729 452.785 48.3789C452.107 45.6512 450.299 44.3152 447.814 43.8989C444.912 43.4143 441.942 43.377 439.817 45.9681C438.127 48.0248 438.823 50.0255 440.805 51.262C442.952 52.4808 445.197 53.5199 447.515 54.3688C450.001 55.3879 452.685 55.9968 454.972 57.2768C462.732 61.5704 462.925 70.8721 455.487 75.6504C449.616 79.422 441.532 79.3785 435.834 75.4143C432.429 73.022 430.403 69.878 431.174 65.1121Z" fill="white"/>
<path d="M299.296 78.4529C299.296 71.6552 299.34 65.2614 299.296 58.8738C299.374 56.8098 299.198 54.7439 298.774 52.7224C297.159 46.5834 292.753 43.8804 286.036 44.6447C280.985 45.1977 277.101 49.51 276.946 55.2078C276.76 61.8315 276.729 68.4676 276.915 75.0913C276.996 77.8999 276.045 78.6144 273.379 78.5772C270.894 78.5399 269.564 78.2043 269.682 75.228C269.956 68.0948 269.602 60.9368 270.117 53.816C270.826 43.9861 278.443 37.4742 288.311 37.6234C298.178 37.7725 305.566 44.595 306.044 54.4001C306.398 61.6327 306.15 68.8902 306.237 76.1476C306.237 77.8377 305.734 78.6704 303.932 78.5461C302.509 78.3721 301.086 78.4529 299.296 78.4529Z" fill="white"/>
<path d="M153.022 46.2291C149.076 46.2291 145.479 46.3844 141.894 46.1732C139.097 46.0116 138.265 47.0741 138.439 49.7584C138.65 52.9522 138.439 56.1771 138.513 59.3833C138.737 66.6097 143.627 72.0838 150.63 72.7549C152.569 72.9413 153.146 73.7056 153.028 75.464C152.954 76.7068 153.028 77.9122 153.028 79.3165C149.174 80.0779 145.175 79.3066 141.881 77.1666C135.45 73.2085 131.846 67.4299 131.598 59.7685C131.473 56.0404 131.473 52.3122 131.598 48.584C131.666 46.5149 130.864 45.7631 128.876 45.9495C127.956 46.0427 127.012 45.8501 126.086 45.9495C123.153 46.3906 122.358 45.1044 122.439 42.3021C122.52 39.9099 123.184 39.0648 125.676 39.1021C131.554 39.1953 131.554 39.1021 131.56 33.2551C131.666 31.7056 131.666 30.1507 131.56 28.6011C131.181 25.7242 132.486 25.1961 135.09 25.1588C137.805 25.1215 138.818 25.8547 138.569 28.6508C138.339 31.0058 138.731 33.4291 138.476 35.784C138.147 38.8101 139.464 39.5619 142.204 39.3569C144.69 39.1705 147.175 39.506 149.661 39.2637C152.438 38.9903 153.488 39.9782 153.103 42.7184C153 43.8857 152.973 45.0584 153.022 46.2291V46.2291Z" fill="white"/>
<path d="M332.135 68.7533C334.552 63.4469 336.733 58.6998 338.877 53.9339C340.579 50.1685 342.45 46.4776 343.848 42.5817C344.91 39.6302 346.607 38.4807 349.62 38.9902C350.605 39.0621 351.593 39.0621 352.578 38.9902C352.087 40.3448 351.783 41.37 351.335 42.3394C346.271 53.673 341.126 64.9568 336.155 76.2966C335.404 78.0116 334.434 78.6765 332.638 78.546C330.843 78.4155 329.109 78.8566 328.065 76.4644C322.852 64.5343 317.44 52.6974 312.109 40.8232C311.982 40.4466 311.899 40.0568 311.86 39.6613C316.831 37.9091 318.484 38.6174 320.472 43.1409C323.844 50.7961 327.237 58.4429 330.65 66.0815C330.948 66.7961 331.396 67.4485 332.135 68.7533Z" fill="white"/>
<path d="M404.834 66.1809C404.834 63.0741 404.691 59.9673 404.834 56.8605C405.115 52.1679 407.076 47.7331 410.357 44.3664C413.638 40.9998 418.021 38.9261 422.704 38.5242C424.103 38.4062 425.985 37.9961 425.842 40.2702C425.731 42.0908 427.29 44.6943 423.568 45.2411C415.683 46.4217 411.657 51.2745 411.588 59.2528C411.539 64.7332 411.445 70.2198 411.632 75.7001C411.731 78.7013 409.917 78.3782 408.022 78.4031C406.127 78.4279 404.524 78.5211 404.691 75.7685C404.89 72.5747 404.735 69.3561 404.735 66.1499L404.834 66.1809Z" fill="white"/>
</svg>
